<?xml version="1.0" encoding="UTF-8"?>
<svg id="Layer_1" data-name="Layer 1" xmlns="http://www.w3.org/2000/svg" version="1.1" viewBox="0 0 1200 630">
  <rect width="1200" height="630" fill="#e5e5e5" stroke-width="0"/>
  <path d="M575.56897,308.07805c-.63365,2.25296-.95459,4.58234-.9538,6.92272,0,2.39987.33229,4.72283.9538,6.92272h10.37177c-.24892-2.29919-.37422-4.61009-.37536-6.92272,0-2.20296.12307-4.55053.37537-6.92272h-10.37177ZM571.56918,305.4105c.04644-.27746.1401-.54491.27691-.79073,5.7381-15.54952,22.99513-23.50325,38.54465-17.76514,8.23582,3.03919,14.72799,9.53207,17.76628,17.76822.13583.24297.22946.50721.27691.7815,1.01533,3.01523,1.56608,6.23968,1.56608,9.59642,0,3.35367-.55382,6.58428-1.56915,9.59642-.04649.2741-.13908.53833-.27383.7815-5.73725,15.54983-22.99385,23.5045-38.54368,17.76725-8.23598-3.03874-14.72851-9.53127-17.76725-17.76725-.13648-.24486-.23013-.51125-.27691-.78765-1.04349-3.08956-1.57356-6.32926-1.56915-9.59027,0-3.35367.55074-6.5812,1.56607-9.59027M599.99847,289.61747c-1.31686,0-2.55987.59074-3.77826,1.9199-1.25224,1.36301-2.36911,3.40598-3.30137,5.97507-.6615,1.8276-1.19994,3.84595-1.6153,5.95046h17.38987c-.39027-2.02077-.93019-4.00973-1.6153-5.95046-.92918-2.5691-2.04913-4.61207-3.30137-5.97507-1.2184-1.32916-2.46141-1.9199-3.77826-1.9199M614.05929,321.92349h10.3687c.62151-2.19989.9538-4.52284.9538-6.92272s-.33229-4.72283-.9538-6.92272h-10.36869c.2523,2.37218.37229,4.71976.37229,6.92272s-.12307,4.55053-.37536,6.92272M608.69034,326.53863h-17.38681c.41844,2.10143.9538,4.12286,1.6153,5.95046.92918,2.56909,2.04913,4.61207,3.30137,5.97507,1.2184,1.32916,2.46141,1.9199,3.77826,1.9199s2.55987-.59074,3.77826-1.9199c1.25224-1.36301,2.37218-3.40598,3.30137-5.97507.6615-1.8276,1.19994-3.84595,1.6153-5.95046M590.66357,338.61493c-.83059-1.45283-1.52776-2.97797-2.08297-4.55668-.86331-2.44819-1.52396-4.9632-1.97528-7.51961h-9.22105c2.81556,5.50369,7.53633,9.79579,13.28239,12.0763M622.61269,303.46291c-2.81555-5.50369-7.53632-9.7958-13.28239-12.0763.81534,1.39685,1.50454,2.94446,2.08604,4.55669.84303,2.32911,1.49838,4.89205,1.97836,7.51961h9.21798Z" fill="#ccc" stroke-width="0"/>
</svg>